<?xml version="1.0" encoding="utf-8"?><svg xmlns="http://www.w3.org/2000/svg" xmlns:xlink="http://www.w3.org/1999/xlink" width="1920" height="628" preserveAspectRatio="xMidYMid" viewBox="0 0 1920 628" style="z-index:1;margin-right:-1.33333px;display:block;animation-play-state:paused" ><g transform="translate(960,314) scale(-1,1) translate(-960,-314)" style="transform:matrix(-1, 0, 0, 1, 1920, 0);animation-play-state:paused" ><linearGradient id="lg-0.1889523836409739" x1="0" x2="1" y1="0" y2="0" style="animation-play-state:paused" ><stop stop-color="#2ec5b2" offset="0" style="animation-play-state:paused" ></stop>

  
<stop stop-color="#0a99d1" offset="1" style="animation-play-state:paused" ></stop></linearGradient>
<path d="M 0 0 L 0 490.209 Q 192 154.782 384 118.294 T 768 -217.867 T 1152 -631.222 T 1536 -1036.89 T 1920 -1309.21 L 1920 0 Z" fill="url(#lg-0.1889523836409739)" opacity="0.27" style="opacity:0.27;animation-play-state:paused" ></path>
<path d="M 0 0 L 0 402.677 Q 192 148.779 384 114.866 T 768 -252.846 T 1152 -615.481 T 1536 -978.28 T 1920 -1343.2 L 1920 0 Z" fill="url(#lg-0.1889523836409739)" opacity="0.27" style="opacity:0.27;animation-play-state:paused" ></path>
<path d="M 0 0 L 0 442.181 Q 192 100.009 384 64.7416 T 768 -337.989 T 1152 -628.574 T 1536 -944.402 T 1920 -1407.33 L 1920 0 Z" fill="url(#lg-0.1889523836409739)" opacity="0.27" style="opacity:0.27;animation-play-state:paused" ></path></g></svg>